<?xml version="1.0" standalone="no"?>
<!DOCTYPE svg PUBLIC "-//W3C//DTD SVG 20010904//EN"
 "http://www.w3.org/TR/2001/REC-SVG-20010904/DTD/svg10.dtd">
<svg version="1.0" xmlns="http://www.w3.org/2000/svg"
 width="1417.000000pt" height="1417.000000pt" viewBox="0 0 1417.000000 1417.000000"
 preserveAspectRatio="xMidYMid meet">
<metadata>
Created by potrace 1.11, written by Peter Selinger 2001-2013
</metadata>
<g transform="translate(0.000000,1417.000000) scale(0.100000,-0.100000)"
fill="#000000" stroke="none">
<path d="M9345 10790 c-4 -6 -10 -8 -14 -5 -17 10 -200 -61 -221 -86 -11 -13
-36 -15 -65 -6 -55 17 -226 18 -290 1 -72 -19 -152 -56 -182 -84 -12 -11 -25
-20 -28 -20 -10 0 -70 -63 -109 -114 -39 -51 -100 -165 -93 -172 2 -2 15 4 28
14 13 10 40 24 59 32 19 7 49 19 65 26 17 7 54 19 83 27 l53 15 -28 -36 c-15
-21 -30 -39 -34 -42 -8 -6 -59 -126 -64 -149 -2 -9 -11 -46 -20 -83 -17 -68
-21 -71 -55 -42 -8 7 -19 13 -25 14 -5 2 -21 7 -35 12 -212 81 -338 11 -365
-203 -4 -30 -9 -58 -13 -63 -3 -5 0 -6 6 -2 9 5 10 0 4 -16 -6 -20 -7 -51 -3
-68 1 -3 4 -32 6 -65 13 -191 63 -354 142 -465 17 -24 7 -17 -30 21 -69 71
-159 207 -172 259 -3 8 -16 44 -26 65 -21 48 -37 182 -34 294 1 65 5 123 9
129 12 19 -14 24 -177 29 -393 13 -871 7 -937 -12 -8 -2 -44 -7 -80 -10 -36
-3 -72 -8 -80 -10 -8 -2 -31 -7 -50 -10 -19 -3 -62 -11 -95 -17 -33 -6 -70
-12 -82 -13 -11 -2 -29 -6 -40 -9 -10 -3 -34 -8 -53 -11 -19 -3 -43 -8 -52
-11 -9 -3 -27 -7 -40 -9 -13 -2 -41 -9 -63 -14 -22 -6 -98 -24 -170 -41 -71
-17 -186 -47 -255 -67 -69 -20 -132 -36 -140 -37 -9 -1 -20 -5 -25 -8 -9 -5
-235 -77 -260 -83 -14 -3 -49 -16 -119 -44 -16 -7 -31 -9 -34 -7 -2 3 -14 -1
-26 -9 -11 -8 -26 -15 -33 -15 -6 0 -24 -5 -40 -12 -15 -6 -36 -13 -47 -15
-10 -2 -33 -10 -50 -17 -26 -12 -65 -26 -86 -31 -3 -1 -16 -6 -30 -12 -14 -6
-70 -28 -125 -48 -167 -61 -557 -212 -610 -235 -11 -5 -72 -30 -135 -56 -63
-25 -126 -51 -140 -57 -14 -5 -29 -11 -35 -13 -14 -4 -343 -142 -380 -159 -55
-26 -165 -74 -173 -76 -15 -3 -318 -162 -333 -175 -8 -8 -19 -14 -24 -14 -8 0
-206 -129 -215 -140 -3 -3 -14 -13 -26 -21 -121 -83 -291 -263 -390 -415 -124
-187 -223 -468 -240 -674 -1 -19 -3 -35 -4 -35 -21 0 -17 -623 4 -745 2 -14 7
-55 11 -92 3 -37 8 -77 10 -90 3 -13 7 -39 9 -58 12 -86 27 -185 41 -265 13
-73 37 -211 39 -225 28 -198 40 -367 39 -560 0 -135 -10 -346 -17 -387 -2 -10
-7 -47 -10 -83 -4 -36 -8 -77 -11 -90 -3 -13 -7 -42 -10 -65 -10 -70 -15 -99
-22 -130 -3 -16 -7 -39 -9 -50 -6 -46 -16 -100 -20 -106 -2 -3 -6 -21 -9 -40
-3 -19 -17 -81 -31 -139 -33 -140 -35 -153 -38 -170 -1 -9 -5 -20 -9 -26 -3
-6 -9 -25 -12 -42 -3 -17 -9 -42 -14 -55 -5 -13 -12 -40 -15 -61 -3 -20 -13
-52 -20 -71 -8 -19 -13 -35 -11 -35 2 0 -2 -18 -10 -40 -8 -22 -14 -44 -15
-48 0 -4 -4 -20 -9 -37 -6 -16 -15 -49 -21 -73 -9 -37 -14 -42 -38 -41 -15 0
-54 -2 -87 -5 -112 -10 -180 -15 -265 -21 -47 -3 -107 -8 -135 -11 -27 -3 -75
-7 -105 -9 -66 -5 -174 -14 -360 -31 -41 -4 -85 -7 -97 -7 -13 -1 -23 -3 -23
-6 0 -4 -21 -6 -48 -7 -46 0 -151 -9 -222 -19 -19 -3 -57 -7 -85 -10 -27 -2
-66 -7 -85 -10 -19 -2 -56 -7 -83 -10 -116 -12 -141 -16 -146 -20 -2 -3 2880
-4 6405 -4 6540 1 6486 1 6159 33 -33 4 -71 8 -85 11 -14 2 -54 7 -90 10 -36
4 -81 8 -100 10 -47 5 -120 12 -200 20 -36 3 -81 7 -100 10 -19 2 -73 6 -120
10 -47 3 -98 8 -115 10 -48 6 -155 16 -225 20 -36 2 -65 4 -65 5 0 1 -34 3
-75 5 -41 3 -100 7 -130 10 -50 4 -136 10 -275 20 -27 2 -102 6 -165 10 -113
6 -215 13 -215 15 0 0 -52 3 -115 6 -63 3 -144 7 -180 9 -36 2 -123 6 -195 10
-71 3 -170 8 -220 10 -83 4 -235 11 -425 20 -41 1 -81 3 -88 4 -13 1 -13 23 4
166 3 22 5 114 5 205 0 155 -4 222 -17 330 -3 25 -7 59 -9 76 -5 55 -14 105
-40 229 -9 44 -19 88 -20 98 -2 9 -6 21 -9 25 -3 5 -7 20 -10 34 -6 37 -74
257 -90 293 -8 17 -22 53 -32 80 -10 28 -24 61 -31 75 -7 14 -13 29 -13 33 0
16 -156 321 -205 402 -62 102 -144 224 -167 249 -10 11 -20 28 -24 38 -3 10
-10 18 -16 18 -10 0 -9 14 7 90 3 14 8 41 11 60 3 19 7 42 9 50 2 8 7 35 10
60 7 49 13 85 15 85 1 0 3 16 5 35 2 19 6 49 9 65 3 17 8 53 11 80 3 28 8 61
10 75 8 45 15 94 20 145 3 28 8 68 10 90 3 22 7 67 10 100 3 33 8 83 10 110
10 98 15 162 21 278 l6 118 -38 -7 c-22 -3 -44 -10 -50 -15 -6 -5 -13 -6 -16
-3 -3 3 -23 -2 -44 -11 -22 -9 -41 -16 -44 -16 -8 1 -43 -9 -65 -19 -22 -9
-147 -54 -155 -56 -10 -2 -66 -24 -79 -32 -16 -9 -16 -8 -26 -107 -4 -38 -9
-73 -11 -76 -2 -4 -6 -24 -9 -45 -4 -22 -8 -49 -11 -61 -2 -13 -6 -33 -8 -45
-18 -96 -103 -401 -158 -563 -17 -49 -31 -94 -32 -100 -3 -17 -45 -125 -68
-174 -22 -48 -23 -57 -33 -211 -5 -93 -8 -135 -20 -315 -12 -175 -21 -303 -30
-445 -18 -276 -18 -264 7 -291 13 -14 50 -56 83 -94 77 -88 105 -121 150 -170
21 -22 48 -54 61 -71 l24 -31 -37 -69 c-21 -38 -54 -101 -73 -139 -19 -39 -37
-72 -40 -75 -10 -10 -72 -141 -69 -144 2 -2 78 -34 169 -70 91 -37 174 -70
185 -75 11 -5 40 -18 65 -29 25 -11 64 -25 88 -32 23 -7 42 -17 42 -22 0 -4 6
-8 13 -8 12 0 197 -72 282 -110 50 -22 88 -35 98 -32 4 1 7 -2 7 -8 0 -11
-292 -6 -310 5 -5 3 -10 1 -10 -5 0 -6 -4 -8 -10 -5 -5 3 -108 8 -227 11 -290
6 -403 10 -407 15 -1 2 -11 29 -20 59 -51 163 -149 293 -263 350 -50 25 -50
25 -47 70 6 87 14 226 19 325 2 55 7 141 10 190 3 50 8 131 11 180 2 50 6 122
9 160 2 39 6 120 10 180 3 61 8 144 10 185 5 80 14 253 20 360 3 73 15 267 20
320 1 19 31 107 65 195 137 352 257 770 296 1032 6 45 12 80 18 108 21 106 48
539 36 585 0 3 -3 52 -5 110 -3 58 -10 139 -16 180 -6 41 -11 82 -11 90 0 8
-5 35 -10 60 -5 25 -12 57 -14 71 -3 15 -15 65 -28 113 -13 47 -22 86 -20 86
5 0 32 -62 54 -125 12 -33 25 -69 30 -80 25 -58 83 -287 94 -373 3 -20 7 -48
10 -62 17 -87 29 -254 30 -422 0 -101 4 -158 11 -158 5 0 22 6 36 14 69 36
295 99 401 111 99 12 93 6 94 98 0 45 3 96 6 112 8 41 57 168 69 180 6 6 5 -3
-1 -20 -14 -35 -22 -213 -10 -220 4 -3 6 -14 3 -25 -3 -11 0 -26 6 -33 6 -8 8
-16 5 -20 -3 -3 9 -36 26 -74 36 -75 111 -156 150 -162 53 -8 108 -3 132 13
30 19 24 28 68 -99 15 -44 36 -98 46 -120 10 -22 18 -42 18 -45 3 -18 42 -100
48 -100 4 0 8 -6 8 -14 0 -19 79 -168 151 -286 32 -53 123 -183 144 -206 5 -7
26 -31 45 -55 47 -59 183 -195 245 -244 28 -22 52 -42 55 -45 31 -34 302 -180
333 -180 7 0 17 -4 23 -9 11 -10 164 -52 214 -58 19 -2 59 -8 87 -12 54 -8
274 -6 328 3 17 2 45 7 63 10 17 3 47 8 64 12 70 11 280 83 290 98 4 6 8 8 8
3 0 -8 177 78 200 98 8 8 17 13 20 13 5 -1 120 71 130 82 3 3 22 16 42 30 21
14 38 28 38 33 0 4 5 7 10 7 24 0 278 249 358 350 28 36 58 73 67 83 8 9 15
21 15 26 0 5 3 11 8 13 19 8 172 270 172 294 0 8 5 14 10 14 6 0 10 6 10 13 0
8 8 29 17 48 10 19 18 41 20 49 1 8 6 23 12 35 23 47 66 214 78 299 7 53 7
252 0 291 -22 124 -59 225 -109 305 l-29 45 7 -40 c19 -118 19 -262 -1 -395
-10 -66 -54 -233 -65 -244 -6 -6 -10 -18 -10 -29 0 -32 -149 -307 -171 -315
-5 -2 -9 -8 -9 -13 0 -11 -76 -111 -124 -164 -77 -84 -95 -102 -152 -155 -50
-47 -141 -124 -179 -153 -5 -4 -31 -23 -57 -42 -26 -19 -52 -35 -57 -35 -6 0
-11 -3 -11 -8 0 -4 -20 -18 -45 -32 -25 -14 -45 -28 -45 -33 0 -4 -4 -6 -9 -2
-5 3 -13 0 -17 -6 -9 -15 -211 -112 -299 -143 -132 -46 -228 -65 -360 -70
-101 -4 -108 0 -111 65 -5 142 -25 455 -39 604 -2 22 -7 72 -10 110 -3 39 -8
94 -11 122 -3 29 -7 72 -9 95 -2 24 -6 63 -9 88 -3 25 -8 68 -11 95 -12 113
-30 229 -61 385 -6 31 -32 134 -44 175 -5 17 -13 48 -19 70 -6 22 -20 70 -32
108 -11 37 -22 73 -23 80 -2 6 -6 19 -9 27 -3 8 -11 35 -17 60 -7 25 -16 50
-21 56 -5 7 -9 16 -8 20 2 12 8 -5 -91 285 -50 145 -92 269 -94 274 -2 6 -6
17 -9 25 -4 8 -16 42 -27 75 -12 33 -25 69 -30 80 -13 31 -23 59 -26 72 -2 12
-59 165 -74 198 -8 19 -15 41 -19 57 -1 4 -13 32 -26 63 -14 30 -22 55 -19 55
4 0 1 7 -6 15 -7 8 -9 15 -5 15 4 0 3 6 -3 13 -8 10 -53 117 -57 137 -1 3 -8
21 -17 40 -8 19 -21 53 -29 75 -7 22 -19 49 -26 60 -7 11 -13 28 -13 38 0 17
7 18 80 14 44 -3 80 -4 80 -2 0 13 -91 182 -122 228 -74 109 -190 208 -292
251 -42 18 -70 25 -131 33 -47 6 -54 11 -36 23 14 8 146 32 189 33 29 1 28 13
-2 29 -117 65 -170 87 -243 104 -50 11 -232 14 -238 4z m-2542 -3205 c-3 -9
-8 -14 -10 -11 -3 3 -2 9 2 15 9 16 15 13 8 -4z m-7 -62 c-3 -21 -8 -58 -11
-83 -3 -25 -8 -52 -10 -60 -2 -8 -7 -33 -10 -55 -3 -23 -7 -52 -10 -65 -3 -13
-7 -41 -10 -61 -3 -20 -9 -50 -14 -67 -5 -17 -7 -33 -4 -36 3 -2 1 -11 -3 -18
-5 -7 -10 -22 -11 -33 -2 -11 -10 -51 -19 -90 -9 -38 -18 -81 -20 -95 -3 -14
-8 -34 -11 -45 -4 -11 -8 -24 -9 -30 -9 -49 -88 -309 -106 -354 -13 -31 -13
-28 -23 -66 -7 -26 -27 -71 -54 -125 -5 -8 -7 -22 -6 -31 2 -9 6 -72 9 -140 4
-68 8 -139 9 -156 2 -18 -2 -33 -7 -33 -7 0 -8 -3 -1 -8 6 -4 11 -27 11 -52 1
-25 4 -101 8 -170 8 -133 13 -237 21 -390 4 -101 13 -253 20 -385 3 -44 7
-136 10 -205 4 -69 8 -168 11 -220 3 -52 7 -131 9 -174 2 -44 6 -123 9 -175 4
-53 9 -157 12 -231 3 -74 6 -146 7 -160 l2 -25 -205 -2 c-639 -6 -1169 -9
-1167 -7 6 6 83 18 190 29 43 4 47 15 26 80 -17 52 -22 67 -34 95 -2 3 -6 16
-10 29 -29 89 -114 209 -188 264 -29 21 -53 40 -54 41 -1 1 -5 17 -8 36 -3 19
-8 43 -11 53 -3 11 -7 29 -9 40 -5 34 -13 79 -19 107 -7 33 -15 70 -20 100 -3
14 -10 50 -16 80 -6 30 -13 65 -16 78 -2 12 -6 32 -8 45 -3 12 -10 47 -16 77
-6 30 -13 67 -15 82 -2 15 -6 35 -9 45 -3 10 -7 29 -10 43 -2 14 -11 63 -20
109 -9 46 -16 85 -16 87 0 2 -12 2 -27 0 -86 -14 -111 -18 -138 -21 -16 -2
-43 -6 -60 -8 -16 -3 -59 -8 -95 -12 -36 -3 -81 -8 -100 -10 -85 -12 -278 -18
-571 -19 l-317 -1 33 -65 c55 -111 148 -342 160 -400 2 -8 4 -15 5 -15 1 0 3
-7 5 -15 2 -8 13 -46 24 -85 12 -38 24 -81 27 -95 8 -38 12 -55 14 -55 1 0 3
-9 5 -20 1 -11 6 -33 9 -50 4 -16 8 -39 10 -50 2 -11 8 -47 15 -80 10 -59 16
-94 26 -185 3 -25 8 -63 11 -85 2 -22 7 -87 9 -145 3 -58 8 -111 10 -117 6
-17 26 -15 -310 -27 -104 -4 -245 -9 -312 -11 l-122 -5 -9 37 c-28 118 -36
143 -62 198 -16 34 -47 81 -68 106 l-38 44 13 65 c17 86 31 158 38 195 3 17 8
41 11 55 3 14 8 36 10 50 2 14 6 36 9 50 6 27 11 56 20 110 3 19 9 44 12 55 3
11 7 31 9 45 1 14 3 25 4 25 2 0 8 30 12 65 2 14 7 31 12 38 4 7 6 16 3 18 -2
3 -1 22 4 42 5 20 12 51 14 67 3 17 7 41 10 55 11 45 15 70 20 97 10 65 27
118 53 160 55 90 71 119 92 161 12 23 26 42 31 42 5 0 9 5 9 11 0 6 20 45 45
86 25 40 45 75 45 77 0 1 26 50 59 108 58 104 165 319 216 433 27 62 125 311
125 319 0 3 5 17 12 33 6 15 13 37 15 48 2 11 8 31 13 45 10 26 55 213 64 265
3 17 7 41 10 55 3 13 7 39 8 56 1 18 5 31 8 29 18 -11 14 -321 -5 -385 -2 -8
-6 -33 -9 -55 -2 -22 -12 -74 -21 -115 -9 -41 -18 -86 -21 -100 -3 -14 -8 -34
-11 -45 -4 -11 -8 -24 -9 -30 -6 -31 -30 -115 -66 -230 -23 -71 -43 -134 -44
-140 -1 -5 -21 -62 -44 -125 -23 -63 -47 -128 -52 -145 -6 -16 -14 -34 -18
-40 -4 -5 -11 -21 -15 -35 -8 -26 -58 -149 -77 -187 -6 -13 -9 -26 -5 -29 7
-7 161 -15 257 -14 36 1 70 1 75 1 69 -5 194 -3 202 2 7 4 14 3 18 -3 4 -6 10
-8 14 -5 5 2 71 7 147 10 76 3 155 8 174 10 19 3 62 7 95 10 67 5 172 16 195
20 18 3 152 24 195 30 40 5 177 34 322 68 12 3 57 15 100 28 43 12 83 23 88
24 44 10 105 30 105 35 0 3 8 6 18 7 20 2 219 78 312 120 36 17 67 30 70 30
11 1 126 66 140 79 12 12 15 58 15 267 l0 252 55 90 c30 50 55 92 55 95 1 3 9
21 20 40 27 49 135 269 135 275 0 2 11 28 24 57 51 109 100 239 163 428 36
107 67 200 68 205 1 6 6 29 10 53 9 52 29 57 21 5z"/>
<path d="M13887 7588 c12 -15 59 -150 67 -193 4 -16 9 -41 12 -55 29 -141 21
-414 -15 -475 -3 -5 -7 -18 -8 -28 -9 -57 -84 -199 -157 -296 -39 -52 -227
-225 -292 -269 -124 -83 -154 -102 -154 -95 0 3 -8 -1 -18 -10 -10 -10 -22
-14 -25 -10 -4 3 -7 2 -7 -4 0 -9 -41 -30 -70 -37 -3 -1 -10 -4 -16 -8 -42
-27 -304 -111 -384 -124 -14 -2 -38 -6 -55 -9 -16 -2 -46 -7 -65 -10 -19 -3
-58 -8 -86 -9 -29 -2 -56 -5 -60 -8 -22 -10 -356 2 -454 17 -59 9 -206 36
-222 41 -9 3 -54 -13 -100 -34 -111 -54 -258 -112 -279 -112 -10 0 -21 -5 -24
-11 -4 -6 -13 -8 -20 -5 -7 2 -16 2 -20 -2 -4 -4 -10 -7 -13 -8 -4 0 -27 -6
-51 -13 -39 -11 -61 -15 -111 -20 -20 -2 25 -26 86 -46 27 -9 56 -19 64 -22 8
-3 23 -8 32 -9 10 -2 23 -5 30 -6 7 -2 15 -6 18 -9 4 -5 158 -40 235 -54 73
-13 102 -17 135 -21 19 -1 46 -5 60 -8 81 -17 469 -27 488 -13 8 6 12 5 12 -2
0 -7 3 -10 8 -7 4 2 45 7 92 11 194 15 241 22 455 69 99 22 249 77 355 129 70
34 162 87 170 98 3 3 15 11 27 18 82 43 268 211 361 326 32 39 60 72 65 73 4
2 7 8 7 12 0 5 14 30 31 55 35 52 109 197 114 225 2 10 8 27 13 37 9 17 29 97
35 138 1 11 5 25 9 30 3 6 5 71 3 145 -3 136 -23 238 -61 311 -8 16 -12 29
-10 29 8 0 -66 124 -76 128 -4 2 -8 10 -8 18 0 8 -4 14 -9 14 -5 0 -12 8 -15
18 -7 20 -90 112 -101 112 -4 0 -3 -6 2 -12z"/>
<path d="M10220 5982 c0 -5 21 -80 46 -167 26 -88 47 -164 49 -170 1 -5 5 -17
8 -25 3 -8 8 -24 10 -35 3 -11 20 -69 37 -130 17 -60 33 -117 35 -125 38 -145
65 -253 70 -285 9 -56 15 -267 7 -279 -3 -6 -7 -24 -9 -41 -4 -40 -56 -145
-86 -173 -13 -13 -40 -25 -59 -28 -28 -5 -39 -2 -57 17 -26 29 -41 82 -37 131
3 30 -1 43 -22 63 -27 28 -114 71 -157 79 -14 3 -33 7 -43 10 -9 3 -50 8 -91
10 -62 5 -72 3 -67 -9 3 -8 2 -15 -2 -15 -10 0 -14 -41 -15 -155 -1 -77 3
-116 20 -170 52 -166 177 -294 349 -357 72 -27 256 -32 314 -9 141 55 219 113
292 219 60 86 120 235 134 332 3 19 7 43 10 53 6 21 12 75 20 187 7 97 12 814
6 846 -3 17 -11 21 -40 21 -162 2 -371 49 -547 124 -16 7 -32 13 -35 14 -15 5
-60 28 -97 50 -24 14 -43 22 -43 17z"/>
</g>
</svg>
